<svg xmlns="http://www.w3.org/2000/svg" width="1180" height="376" viewBox="0 0 1180 376">
<g>
<path d="M 149.79 278.75 C136.88,291.10 136.31,289.36 143.50,259.50 C153.12,219.54 153.28,218.74 152.09,214.33 C150.52,208.49 147.82,205.56 139.68,200.86 C130.37,195.49 129.16,194.38 128.43,190.47 C127.57,185.90 129.10,183.65 140.00,173.47 C145.23,168.59 157.60,156.90 167.50,147.49 C201.07,115.59 204.11,112.87 205.83,113.21 C208.44,113.73 207.87,118.51 202.59,140.00 C193.11,178.62 192.59,182.23 195.64,188.66 C197.16,191.85 207.38,200.00 209.87,200.00 C210.41,200.00 212.46,201.52 214.43,203.37 C217.17,205.96 217.99,207.52 217.98,210.12 C217.98,210.40 217.98,210.65 217.99,210.89 C218.00,211.22 218.01,211.52 217.99,211.82 C217.79,214.90 214.50,217.77 177.52,252.50 C161.72,267.33 161.57,267.48 149.79,278.75 ZM 340.99 234.51 C337.45,238.08 334.07,241.00 333.48,241.00 C332.89,241.00 330.67,239.22 328.55,237.05 C324.93,233.34 324.54,233.18 322.10,234.44 C315.42,237.85 303.52,238.74 293.60,236.55 C284.91,234.63 272.61,223.97 268.49,214.80 C265.19,207.44 264.12,196.23 266.05,189.33 C269.09,178.47 277.46,168.37 287.50,163.44 C293.08,160.70 294.30,160.50 305.00,160.50 C315.28,160.50 317.08,160.77 322.01,163.09 C328.24,166.01 337.79,174.74 340.50,180.00 C343.19,185.20 344.97,192.79 344.99,199.07 C345.00,204.97 342.71,214.15 340.40,217.45 C339.13,219.25 339.39,219.82 343.22,223.72 L 347.43 228.01 ZM 872.58 234.55 C871.98,236.93 871.71,237.00 862.48,237.00 L 853.00 237.00 L 853.00 160.83 L 875.25 161.20 C899.41,161.60 900.14,161.75 907.64,167.75 C913.84,172.71 916.41,179.43 915.70,188.83 C915.08,196.96 912.51,202.08 907.01,206.15 C905.35,207.37 904.00,208.86 904.00,209.45 C904.00,210.03 907.15,216.29 911.00,223.36 C914.85,230.42 918.00,236.38 918.00,236.60 C918.00,237.20 903.80,237.05 901.48,236.43 C900.16,236.07 897.21,231.76 892.98,223.98 L 886.50 212.06 L 879.50 212.03 L 872.50 212.00 L 872.85 222.05 C873.04,227.58 872.91,233.21 872.58,234.55 ZM 540.23 215.94 L 539.96 237.00 L 521.00 237.00 L 521.00 161.00 L 529.25 161.02 L 537.50 161.05 L 549.00 175.66 C555.33,183.69 562.75,192.99 565.50,196.33 L 570.50 202.39 L 570.77 181.70 L 571.04 161.00 L 590.00 161.00 L 590.00 198.39 C590.00,201.95 590.01,205.18 590.01,208.12 C590.05,229.05 590.07,234.97 587.46,236.55 C586.43,237.17 584.99,237.12 582.99,237.05 C582.28,237.03 581.50,237.00 580.64,237.00 L 574.44 237.00 L 564.47 224.86 C558.99,218.19 553.84,211.78 553.03,210.61 C552.23,209.45 550.73,207.60 549.71,206.50 C548.69,205.40 546.20,202.34 544.18,199.69 L 540.50 194.88 ZM 971.02 234.74 C965.15,237.54 953.98,238.65 947.00,237.12 C934.97,234.48 926.00,224.43 926.00,213.58 C926.00,207.90 927.46,204.47 931.87,199.76 L 935.38 196.03 L 933.25 193.76 C926.76,186.83 927.65,174.53 935.17,167.30 C940.55,162.13 946.85,159.88 956.36,159.75 C963.90,159.65 965.11,159.92 970.09,162.76 C976.63,166.51 979.39,169.29 981.45,174.23 C984.17,180.74 982.79,189.97 978.50,194.00 L 976.30 196.07 L 980.05 199.82 C984.42,204.19 986.48,210.46 985.62,216.76 C984.46,225.20 980.32,230.31 971.02,234.74 ZM 454.43 233.75 L 453.03 237.00 L 443.02 237.00 C436.87,237.00 433.00,236.61 433.00,235.98 C433.00,235.42 435.98,227.66 439.62,218.73 C443.27,209.80 447.72,198.68 449.52,194.00 C451.32,189.32 454.25,182.12 456.02,178.00 C457.80,173.88 459.96,168.36 460.83,165.75 L 462.41 161.00 L 472.45 161.02 L 482.50 161.05 L 497.25 197.79 C505.36,217.99 512.00,235.10 512.00,235.81 C512.00,236.78 509.69,237.06 502.61,236.92 C497.44,236.83 492.77,236.47 492.22,236.12 C491.68,235.78 489.99,232.00 488.48,227.72 L 485.72 219.94 L 472.79 220.22 L 459.85 220.50 L 457.84 225.50 C456.73,228.25 455.20,231.96 454.43,233.75 ZM 731.17 235.11 C729.77,236.76 728.09,237.00 718.28,237.00 C712.08,237.00 707.00,236.66 707.00,236.24 C707.00,235.82 708.69,233.05 710.75,230.08 C712.81,227.11 716.41,221.94 718.75,218.59 C726.67,207.24 732.00,199.15 732.00,198.49 C732.00,197.92 723.13,184.46 711.16,166.85 C709.42,164.30 708.00,161.94 708.00,161.60 C708.00,161.27 713.10,161.00 719.34,161.00 C730.12,161.00 730.73,161.11 731.72,163.25 C732.30,164.49 735.35,169.01 738.50,173.31 L 744.23 181.12 L 745.82 178.81 C746.70,177.54 748.00,175.91 748.71,175.18 C749.42,174.45 750.00,173.47 750.00,173.00 C750.00,172.53 750.60,171.54 751.34,170.80 C752.08,170.06 753.89,167.55 755.36,165.23 L 758.03 161.00 L 769.01 161.00 C775.06,161.00 780.00,161.38 780.00,161.84 C780.00,162.89 772.37,174.77 770.50,176.65 C769.75,177.40 768.85,178.91 768.50,180.01 C768.15,181.10 767.45,182.00 766.93,182.00 C766.42,182.00 766.00,182.53 766.00,183.17 C766.00,183.81 763.75,187.42 761.00,191.19 C758.25,194.96 756.00,198.26 756.00,198.52 C756.00,199.04 772.81,223.71 777.92,230.71 C779.62,233.02 781.00,235.38 781.00,235.96 C781.00,236.62 776.96,237.00 769.99,237.00 C760.72,237.00 758.75,236.72 757.53,235.25 C755.67,233.01 748.32,222.34 746.15,218.76 C744.47,215.96 743.00,215.16 743.00,217.05 C743.00,218.11 734.12,231.67 731.17,235.11 ZM 404.43 233.94 C400.22,235.51 396.76,235.98 389.71,235.90 C379.66,235.79 376.07,235.17 371.50,232.75 C366.87,230.30 360.34,223.03 357.80,217.50 C355.62,212.76 355.48,211.14 355.19,186.75 L 354.88 161.00 L 373.84 161.00 L 374.17 184.25 C374.46,204.34 374.75,207.95 376.30,210.79 C381.53,220.38 397.47,220.62 402.77,211.20 C404.90,207.41 405.00,206.17 405.00,184.11 L 405.00 161.00 L 414.38 161.00 C423.27,161.00 423.80,161.12 424.37,163.25 C425.32,166.79 425.09,197.62 424.04,206.69 C423.50,211.37 422.19,216.67 420.97,219.05 C417.82,225.23 410.79,231.56 404.43,233.94 ZM 639.42 236.39 C638.55,236.73 634.27,237.00 629.92,237.00 L 622.00 237.00 L 622.00 180.00 L 598.00 180.00 L 598.00 161.00 L 665.00 161.00 L 665.00 180.00 L 641.00 180.00 L 641.00 207.89 C641.00,232.41 640.81,235.86 639.42,236.39 ZM 845.08 218.00 L 844.50 236.50 L 817.43 236.77 C802.55,236.91 790.06,236.72 789.68,236.35 C788.84,235.51 788.77,164.77 789.61,162.58 C790.10,161.29 791.96,161.00 799.61,161.00 L 809.00 161.00 L 809.00 218.00 ZM 297.37 217.91 C312.30,222.24 325.07,213.15 324.95,198.30 C324.89,190.72 322.68,186.46 316.53,182.06 C312.14,178.92 310.86,178.50 305.53,178.52 C298.06,178.54 291.84,181.70 287.83,187.50 C285.56,190.79 285.06,192.60 285.03,197.68 C285.01,201.09 285.43,205.00 285.96,206.38 C287.48,210.38 293.95,216.92 297.37,217.91 ZM 873.00 196.70 C873.93,197.67 889.66,196.25 892.09,194.97 C895.47,193.19 895.97,192.14 895.98,186.81 C896.00,183.27 895.40,181.42 893.59,179.31 C891.33,176.68 890.60,176.48 882.16,176.15 L 873.14 175.81 L 872.82 185.99 C872.64,191.59 872.72,196.41 873.00,196.70 ZM 949.90 218.72 C956.66,223.26 965.87,220.10 965.97,213.18 C966.10,203.80 950.56,200.40 946.99,209.03 C945.25,213.23 946.14,216.19 949.90,218.72 ZM 952.25 188.35 C954.04,189.23 955.86,189.96 956.30,189.98 C957.58,190.01 962.99,187.02 963.08,186.22 C963.12,185.83 963.32,184.63 963.51,183.57 C963.90,181.49 962.39,177.96 960.60,176.77 C960.00,176.36 957.88,176.02 955.90,176.02 C950.75,175.99 948.26,179.20 948.84,185.13 C948.93,186.02 950.46,187.47 952.25,188.35 ZM 466.00 203.45 C466.00,203.75 468.90,204.00 472.45,204.00 L 478.89 204.00 L 477.41 199.02 C476.60,196.28 475.12,192.13 474.13,189.79 C472.36,185.62 472.32,185.60 471.66,188.23 C471.29,189.71 470.59,191.94 470.11,193.21 C469.63,194.47 469.19,195.84 469.14,196.26 C469.09,196.68 468.36,198.34 467.52,199.96 C466.68,201.58 466.00,203.15 466.00,203.45 Z" fill="rgb(78,82,110)"/>
<path d="M 0.00 188.00 L 0.00 0.00 L 590.00 0.00 L 1180.00 0.00 L 1180.00 188.00 L 1180.00 376.00 L 590.00 376.00 L 0.00 376.00 L 0.00 188.00 ZM 149.79 278.75 C161.57,267.48 161.72,267.33 177.52,252.50 C220.66,211.98 217.95,214.83 217.98,210.12 C217.99,207.52 217.17,205.96 214.43,203.37 C212.46,201.52 210.41,200.00 209.87,200.00 C207.38,200.00 197.16,191.85 195.64,188.66 C192.59,182.23 193.11,178.62 202.59,140.00 C207.87,118.51 208.44,113.73 205.83,113.21 C204.11,112.87 201.07,115.59 167.50,147.49 C157.60,156.90 145.23,168.59 140.00,173.47 C129.10,183.65 127.57,185.90 128.43,190.47 C129.16,194.38 130.37,195.49 139.68,200.86 C147.82,205.56 150.52,208.49 152.09,214.33 C153.28,218.74 153.12,219.54 143.50,259.50 C136.31,289.36 136.88,291.10 149.79,278.75 ZM 340.99 234.51 L 347.43 228.01 L 343.22 223.72 C339.39,219.82 339.13,219.25 340.40,217.45 C342.71,214.15 345.00,204.97 344.99,199.07 C344.97,192.79 343.19,185.20 340.50,180.00 C337.79,174.74 328.24,166.01 322.01,163.09 C317.08,160.77 315.28,160.50 305.00,160.50 C294.30,160.50 293.08,160.70 287.50,163.44 C277.46,168.37 269.09,178.47 266.05,189.33 C264.12,196.23 265.19,207.44 268.49,214.80 C272.61,223.97 284.91,234.63 293.60,236.55 C303.52,238.74 315.42,237.85 322.10,234.44 C324.54,233.18 324.93,233.34 328.55,237.05 C330.67,239.22 332.89,241.00 333.48,241.00 C334.07,241.00 337.45,238.08 340.99,234.51 ZM 971.02 234.74 C980.32,230.31 984.46,225.20 985.62,216.76 C986.48,210.46 984.42,204.19 980.05,199.82 L 976.30 196.07 L 978.50 194.00 C982.79,189.97 984.17,180.74 981.45,174.23 C979.39,169.29 976.63,166.51 970.09,162.76 C965.11,159.92 963.90,159.65 956.36,159.75 C946.85,159.88 940.55,162.13 935.17,167.30 C927.65,174.53 926.76,186.83 933.25,193.76 L 935.38 196.03 L 931.87 199.76 C927.46,204.47 926.00,207.90 926.00,213.58 C926.00,224.43 934.97,234.48 947.00,237.12 C953.98,238.65 965.15,237.54 971.02,234.74 ZM 454.43 233.75 C455.20,231.96 456.73,228.25 457.84,225.50 L 459.85 220.50 L 472.79 220.22 L 485.72 219.94 L 488.48 227.72 C489.99,232.00 491.68,235.78 492.22,236.12 C492.77,236.47 497.44,236.83 502.61,236.92 C509.69,237.06 512.00,236.78 512.00,235.81 C512.00,235.10 505.36,217.99 497.25,197.79 L 482.50 161.05 L 472.45 161.02 L 462.41 161.00 L 460.83 165.75 C459.96,168.36 457.80,173.88 456.02,178.00 C454.25,182.12 451.32,189.32 449.52,194.00 C447.72,198.68 443.27,209.80 439.62,218.73 C435.98,227.66 433.00,235.42 433.00,235.98 C433.00,236.61 436.87,237.00 443.02,237.00 L 453.03 237.00 L 454.43 233.75 ZM 540.23 215.94 L 540.50 194.88 L 544.18 199.69 C546.20,202.34 548.69,205.40 549.71,206.50 C550.73,207.60 552.23,209.45 553.03,210.61 C553.84,211.78 558.99,218.19 564.47,224.86 L 574.44 237.00 L 580.64 237.00 C590.93,237.00 590.00,240.85 590.00,198.39 L 590.00 161.00 L 580.52 161.00 L 571.04 161.00 L 570.77 181.70 L 570.50 202.39 L 565.50 196.33 C562.75,192.99 555.33,183.69 549.00,175.66 L 537.50 161.05 L 529.25 161.02 L 521.00 161.00 L 521.00 199.00 L 521.00 237.00 L 530.48 237.00 L 539.96 237.00 L 540.23 215.94 ZM 639.42 236.39 C640.81,235.86 641.00,232.41 641.00,207.89 L 641.00 180.00 L 653.00 180.00 L 665.00 180.00 L 665.00 170.50 L 665.00 161.00 L 631.50 161.00 L 598.00 161.00 L 598.00 170.50 L 598.00 180.00 L 610.00 180.00 L 622.00 180.00 L 622.00 208.50 L 622.00 237.00 L 629.92 237.00 C634.27,237.00 638.55,236.73 639.42,236.39 ZM 731.17 235.11 C734.12,231.67 743.00,218.11 743.00,217.05 C743.00,215.16 744.47,215.96 746.15,218.76 C748.32,222.34 755.67,233.01 757.53,235.25 C758.75,236.72 760.72,237.00 769.99,237.00 C776.96,237.00 781.00,236.62 781.00,235.96 C781.00,235.38 779.62,233.02 777.92,230.71 C772.81,223.71 756.00,199.04 756.00,198.52 C756.00,198.26 758.25,194.96 761.00,191.19 C763.75,187.42 766.00,183.81 766.00,183.17 C766.00,182.53 766.42,182.00 766.93,182.00 C767.45,182.00 768.15,181.10 768.50,180.01 C768.85,178.91 769.75,177.40 770.50,176.65 C772.37,174.77 780.00,162.89 780.00,161.84 C780.00,161.38 775.06,161.00 769.01,161.00 L 758.03 161.00 L 755.36 165.23 C753.89,167.55 752.08,170.06 751.34,170.80 C750.60,171.54 750.00,172.53 750.00,173.00 C750.00,173.47 749.42,174.45 748.71,175.18 C748.00,175.91 746.70,177.54 745.82,178.81 L 744.23 181.12 L 738.50 173.31 C735.35,169.01 732.30,164.49 731.72,163.25 C730.73,161.11 730.12,161.00 719.34,161.00 C713.10,161.00 708.00,161.27 708.00,161.60 C708.00,161.94 709.42,164.30 711.16,166.85 C723.13,184.46 732.00,197.92 732.00,198.49 C732.00,199.15 726.67,207.24 718.75,218.59 C716.41,221.94 712.81,227.11 710.75,230.08 C708.69,233.05 707.00,235.82 707.00,236.24 C707.00,236.66 712.08,237.00 718.28,237.00 C728.09,237.00 729.77,236.76 731.17,235.11 ZM 844.79 227.25 L 845.08 218.00 L 827.04 218.00 L 809.00 218.00 L 809.00 189.50 L 809.00 161.00 L 799.61 161.00 C791.96,161.00 790.10,161.29 789.61,162.58 C788.77,164.77 788.84,235.51 789.68,236.35 C790.06,236.72 802.55,236.91 817.43,236.77 L 844.50 236.50 L 844.79 227.25 ZM 872.58 234.55 C872.91,233.21 873.04,227.58 872.85,222.05 L 872.50 212.00 L 879.50 212.03 L 886.50 212.06 L 892.98 223.98 C897.21,231.76 900.16,236.07 901.48,236.43 C903.80,237.05 918.00,237.20 918.00,236.60 C918.00,236.38 914.85,230.42 911.00,223.36 C907.15,216.29 904.00,210.03 904.00,209.45 C904.00,208.86 905.35,207.37 907.01,206.15 C912.51,202.08 915.08,196.96 915.70,188.83 C916.41,179.43 913.84,172.71 907.64,167.75 C900.14,161.75 899.41,161.60 875.25,161.20 L 853.00 160.83 L 853.00 198.92 L 853.00 237.00 L 862.48 237.00 C871.71,237.00 871.98,236.93 872.58,234.55 ZM 404.43 233.94 C410.79,231.56 417.82,225.23 420.97,219.05 C422.19,216.67 423.50,211.37 424.04,206.69 C425.09,197.62 425.32,166.79 424.37,163.25 C423.80,161.12 423.27,161.00 414.38,161.00 L 405.00 161.00 L 405.00 184.11 C405.00,206.17 404.90,207.41 402.77,211.20 C397.47,220.62 381.53,220.38 376.30,210.79 C374.75,207.95 374.46,204.34 374.17,184.25 L 373.84 161.00 L 364.36 161.00 L 354.88 161.00 L 355.19 186.75 C355.48,211.14 355.62,212.76 357.80,217.50 C360.34,223.03 366.87,230.30 371.50,232.75 C376.07,235.17 379.66,235.79 389.71,235.90 C396.76,235.98 400.22,235.51 404.43,233.94 ZM 297.37 217.91 C293.95,216.92 287.48,210.38 285.96,206.38 C285.43,205.00 285.01,201.09 285.03,197.68 C285.06,192.60 285.56,190.79 287.83,187.50 C291.84,181.70 298.06,178.54 305.53,178.52 C310.86,178.50 312.14,178.92 316.53,182.06 C322.68,186.46 324.89,190.72 324.95,198.30 C325.07,213.15 312.30,222.24 297.37,217.91 ZM 949.90 218.72 C946.14,216.19 945.25,213.23 946.99,209.03 C950.56,200.40 966.10,203.80 965.97,213.18 C965.87,220.10 956.66,223.26 949.90,218.72 ZM 952.25 188.35 C950.46,187.47 948.93,186.02 948.84,185.13 C948.26,179.20 950.75,175.99 955.90,176.02 C957.88,176.02 960.00,176.36 960.60,176.77 C962.39,177.96 963.90,181.49 963.51,183.57 C963.32,184.63 963.12,185.83 963.08,186.22 C962.99,187.02 957.58,190.01 956.30,189.98 C955.86,189.96 954.04,189.23 952.25,188.35 ZM 466.00 203.45 C466.00,203.15 466.68,201.58 467.52,199.96 C468.36,198.34 469.09,196.68 469.14,196.26 C469.19,195.84 469.63,194.47 470.11,193.21 C470.59,191.94 471.29,189.71 471.66,188.23 C472.32,185.60 472.36,185.62 474.13,189.79 C475.12,192.13 476.60,196.28 477.41,199.02 L 478.89 204.00 L 472.45 204.00 C468.90,204.00 466.00,203.75 466.00,203.45 ZM 873.00 196.70 C872.72,196.41 872.64,191.59 872.82,185.99 L 873.14 175.81 L 882.16 176.15 C890.60,176.48 891.33,176.68 893.59,179.31 C895.40,181.42 896.00,183.27 895.98,186.81 C895.97,192.14 895.47,193.19 892.09,194.97 C889.66,196.25 873.93,197.67 873.00,196.70 Z" fill="rgb(246,246,247)"/>
</g>
</svg>